<?xml version="1.0" encoding="UTF-8" standalone="no" ?>
<!DOCTYPE svg PUBLIC "-//W3C//DTD SVG 1.1//EN" "http://www.w3.org/Graphics/SVG/1.1/DTD/svg11.dtd">
<svg xmlns="http://www.w3.org/2000/svg" xmlns:xlink="http://www.w3.org/1999/xlink" version="1.1" width="1200" height="800" viewBox="0 0 1200 800" xml:space="preserve">
<desc>Created with Fabric.js 4.6.0</desc>
<defs>
</defs>
<g transform="matrix(1 0 0 1 904.95 384.02)" id="1IsdjyGd4tTyW3AyDfvfO"  >
<path style="stroke: rgb(239,136,45); stroke-width: 5; stroke-dasharray: none; stroke-linecap: butt; stroke-dashoffset: 0; stroke-linejoin: miter; stroke-miterlimit: 4; fill: rgb(255,255,255); fill-rule: nonzero; opacity: 1;" vector-effect="non-scaling-stroke"  transform=" translate(-38.92, -27.57)" d="M 0 0 L 77.83018 0 L 77.83018 55.14528 L 0 55.14528 z" stroke-linecap="round" />
</g>
<g transform="matrix(1 0 0 1 881.07 350.81)" id="KVpSVepMdC94FGf62_gQn"  >
<path style="stroke: rgb(239,136,45); stroke-width: 5; stroke-dasharray: none; stroke-linecap: butt; stroke-dashoffset: 0; stroke-linejoin: miter; stroke-miterlimit: 4; fill: rgb(255,255,255); fill-rule: nonzero; opacity: 1;" vector-effect="non-scaling-stroke"  transform=" translate(-8, -5.14)" d="M 0 0 L 16 0 L 16 10.27763 L 0 10.27763 z" stroke-linecap="round" />
</g>
<g transform="matrix(1.28 0 0 1.28 904.95 384.02)" id="HlBMlSV32dshHtOCE8eQA"  >
<path style="stroke: rgb(239,136,45); stroke-width: 5; stroke-dasharray: none; stroke-linecap: butt; stroke-dashoffset: 0; stroke-linejoin: miter; stroke-miterlimit: 4; fill: rgb(255,255,255); fill-rule: nonzero; opacity: 1;" vector-effect="non-scaling-stroke"  transform=" translate(0, 0)" d="M 0 -12.84703 C 7.09156 -12.84703 12.84703 -7.09156 12.84703 0 C 12.84703 7.09156 7.09156 12.84703 0 12.84703 C -7.09156 12.84703 -12.84703 7.09156 -12.84703 0 C -12.84703 -7.09156 -7.09156 -12.84703 0 -12.84703 z" stroke-linecap="round" />
</g>
<g transform="matrix(0.69 0 0 0.69 935.1 365.64)" id="NlzNQ6yVQvLn_nGE1ZR8e"  >
<path style="stroke: rgb(239,136,45); stroke-width: 0; stroke-dasharray: none; stroke-linecap: butt; stroke-dashoffset: 0; stroke-linejoin: miter; stroke-miterlimit: 4; fill: rgb(239,136,45); fill-rule: nonzero; opacity: 1;" vector-effect="non-scaling-stroke"  transform=" translate(0, 0)" d="M 0 -6.28077 C 3.46698 -6.28077 6.28077 -3.4669900000000005 6.28077 0 C 6.28077 3.46698 3.4669900000000005 6.28077 0 6.28077 C -3.46698 6.28077 -6.28077 3.4669900000000005 -6.28077 0 C -6.28077 -3.46698 -3.4669900000000005 -6.28077 0 -6.28077 z" stroke-linecap="round" />
</g>
</svg>